<?xml version="1.0" standalone="no"?>
<!DOCTYPE svg PUBLIC "-//W3C//DTD SVG 20010904//EN"
 "http://www.w3.org/TR/2001/REC-SVG-20010904/DTD/svg10.dtd">
<svg version="1.0" xmlns="http://www.w3.org/2000/svg"
 width="234.000000pt" height="63.000000pt" viewBox="0 0 234.000000 63.000000"
 preserveAspectRatio="xMidYMid meet">

<g transform="translate(0.000000,63.000000) scale(0.100000,-0.100000)"
fill="#000000" stroke="none">
<path d="M1107 511 c-86 -102 -81 -100 -126 -57 l-38 37 -74 -85 c-65 -75 -78
-86 -106 -86 -18 0 -33 3 -33 6 0 3 23 32 52 63 43 47 48 57 32 60 -13 2 -37
-17 -79 -63 l-60 -66 -83 0 c-69 0 -85 3 -102 20 -26 26 -52 25 -76 -1 -18
-20 -27 -21 -166 -17 -82 2 -149 0 -149 -4 -7 -32 -4 -33 152 -29 136 2 157 1
162 -13 8 -20 60 -21 77 -1 9 11 34 15 100 15 l88 0 57 -65 c33 -38 65 -65 76
-65 26 0 24 5 -17 50 -20 22 -43 49 -51 60 -13 19 -12 20 20 20 31 0 42 -9
108 -86 l74 -86 36 42 36 42 69 -80 c38 -45 74 -81 81 -81 6 -1 42 35 79 80
l69 81 37 -41 36 -41 74 84 c67 78 76 84 111 85 l39 1 -57 -65 c-54 -61 -56
-65 -33 -65 19 0 39 17 79 65 l54 65 91 0 c73 0 93 -3 98 -15 7 -20 60 -19 77
1 11 13 35 15 163 13 145 -4 151 -3 151 16 0 19 -6 20 -147 16 -137 -3 -147
-2 -167 18 -26 26 -53 27 -76 1 -16 -17 -30 -20 -104 -19 l-86 0 -54 65 c-39
46 -61 64 -79 64 -22 0 -19 -5 32 -62 l56 -63 -32 -3 c-35 -4 -41 1 -146 123
l-44 50 -30 -38 c-27 -33 -57 -49 -58 -29 -1 4 -31 40 -68 80 l-67 73 -58 -70z
m114 -43 c79 -95 76 -85 41 -121 -18 -18 -32 -38 -32 -43 0 -6 14 -23 30 -39
17 -16 30 -31 30 -34 0 -8 -110 -135 -120 -139 -3 -1 -34 29 -68 66 l-61 69
33 39 34 39 -33 40 -33 41 60 67 c33 37 63 67 67 67 4 0 27 -24 52 -52z m-231
-82 c0 -5 -14 -25 -32 -43 l-32 -33 33 -40 c31 -39 32 -42 17 -65 -9 -14 -21
-25 -26 -25 -10 0 -60 52 -100 103 l-19 24 57 66 56 66 23 -21 c13 -12 23 -26
23 -32z m462 -19 l55 -62 -58 -65 -58 -65 -27 26 -26 27 35 38 35 39 -34 40
-33 40 21 22 c12 13 25 23 29 23 3 0 31 -28 61 -63z m-408 -36 c17 -18 17 -21
1 -45 -21 -31 -23 -32 -52 -4 l-23 22 22 23 c26 28 30 28 52 4z m299 -4 c13
-21 13 -25 -4 -46 l-20 -24 -24 23 -25 24 22 23 c27 29 32 29 51 0z m-864 -1
c6 -7 9 -20 5 -29 -15 -39 -72 -19 -60 21 8 25 38 29 55 8z m1431 -5 c7 -15 6
-24 -6 -36 -9 -9 -21 -14 -27 -12 -18 6 -31 33 -24 51 9 22 44 20 57 -3z"/>
</g>
</svg>
